        -= Modern Talking =-

-------------------------------------

      1987 - In the Garden of Venus (Special Russian Version)

-------------------------------------

Track List


01. Modern Talking - In 100 Years (4:01)
02. Modern Talking - Don't Let It Get You Down (3:43)
03. Modern Talking - Who Will Save the World (3:46)
04. Modern Talking - A Telegram to Your Heart (2:53)
05. Modern Talking - It's Christmas (3:54)
06. Modern Talking - Don't Lose My Number (3:12)
07. Modern Talking - Slow Motion (3:42)
08. Modern Talking - Locomotion Tango (3:51)
09. Modern Talking - Good Girls Go to Heaven - Bad Girls Go to Everywhere (3:38)
10. Modern Talking - In 100 Years (reprise) (1:28)

-------------------------------------

EAC LOG:
Exact Audio Copy V1.0 beta 3 from 29. August 2011

EAC extraction logfile from 12. May 2013, 0:40

Modern Talking / In the Garden of Venus (Special Russian Version)

Used drive : TSSTcorpCDDVDW TS-L633C Adapter: 0 ID: 0

Read mode : Secure
Utilize accurate stream : Yes
Defeat audio cache : Yes
Make use of C2 pointers : No

Read offset correction : 6
Overread into Lead-In and Lead-Out : No
Fill up missing offset samples with silence : Yes
Delete leading and trailing silent blocks : No
Null samples used in CRC calculations : Yes
Used interface : Native Win32 interface for Win NT & 2000

Used output format : Internal WAV Routines
Sample format : 44.100 Hz; 16 Bit; Stereo


TOC of the extracted CD

 Track | Start | Length | Start sector | End sector 
 ---------------------------------------------------------
 1 | 0:00.00 | 4:00.47 | 0 | 18046 
 2 | 4:00.47 | 3:42.73 | 18047 | 34769 
 3 | 7:43.45 | 3:46.02 | 34770 | 51721 
 4 | 11:29.47 | 2:53.00 | 51722 | 64696 
 5 | 14:22.47 | 3:54.03 | 64697 | 82249 
 6 | 18:16.50 | 3:11.72 | 82250 | 96646 
 7 | 21:28.47 | 3:42.00 | 96647 | 113296 
 8 | 25:10.47 | 3:51.03 | 113297 | 130624 
 9 | 29:01.50 | 3:37.72 | 130625 | 146971 
 10 | 32:39.47 | 1:27.53 | 146972 | 153549 


Range status and errors

Selected range

 Filename C:Modern Talking - In the Garden of Venus (Special Russian Version)Modern Talking - In the Garden of Venus (Special Russian Version).wav

 Peak level 91.6 %
 Extraction speed 1.7 X
 Range quality 100.0 %
 Test CRC F12AE2BD
 Copy CRC F12AE2BD
 Copy OK

No errors occurred


AccurateRip summary

Track 1 accurately ripped (confidence 2) [1D27E4F1] (AR v1)
Track 2 accurately ripped (confidence 2) [9585BFD8] (AR v1)
Track 3 accurately ripped (confidence 2) [76EEF8F5] (AR v1)
Track 4 accurately ripped (confidence 2) [5A810C26] (AR v1)
Track 5 accurately ripped (confidence 2) [7802332D] (AR v1)
Track 6 accurately ripped (confidence 2) [C32FA8F8] (AR v1)
Track 7 accurately ripped (confidence 2) [345B5C0C] (AR v1)
Track 8 accurately ripped (confidence 2) [4219CCBD] (AR v1)
Track 9 accurately ripped (confidence 2) [9517A829] (AR v1)
Track 10 cannot be verified as accurate (confidence 9) [1285E464], AccurateRip returned [77A3DE72] (AR v2)

 9 ╤é╤Ç╨╡╨║(╨╕) ╤ü╨║╨╛╨┐╨╕╤Ç╨╛╨▓╨░╨╜╤ï ╤é╨╛╤ç╨╜╨╛
 1 ╤é╤Ç╨╡╨║(╨╕) ╨╜╨╡ ╤â╨┤╨░╨╗╨╛╤ü╤î ╨┐╤Ç╨╛╨▓╨╡╤Ç╨╕╤é╤î ╨╜╨░ ╤é╨╛╤ç╨╜╨╛╤ü╤é╤î

Some tracks could not be verified as accurate

End of status report

---- CUETools DB Plugin V2.1.5

[CTDB TOCID: r.8s75onNg.LF9F5RAN9cItdsQo-] found
Submit result: r.8s75onNg.LF9F5RAN9cItdsQo- has been confirmed
Track | CTDB Status
 1 | (18/18) Accurately ripped
 2 | (18/18) Accurately ripped
 3 | (18/18) Accurately ripped
 4 | (18/18) Accurately ripped
 5 | (18/18) Accurately ripped
 6 | (18/18) Accurately ripped
 7 | (18/18) Accurately ripped
 8 | (18/18) Accurately ripped
 9 | (18/18) Accurately ripped
 10 | (18/18) Accurately ripped


==== Log checksum D120DE1D5A95253143D8B5CA3474106BA30800FA0CE09063D790887A67A69CF3 ====
-------------------------------------
rip by KroMvELΓäó